<?xml version="1.0" encoding="UTF-8"?> <svg xmlns="http://www.w3.org/2000/svg" width="500" height="500" viewBox="0 0 500 500" fill="none"><g clip-path="url(#clip0)"><path d="M224.351 94.3415C222.675 93.6801 221.334 93.0739 219.943 92.6087C205.087 87.6528 189.931 87.536 174.782 90.5651C151.131 95.2961 133.707 108.552 123.204 130.298C116.471 144.236 113.394 159.238 112.215 174.608C110.611 195.519 112.237 216.121 118.642 236.209C123.547 251.59 131.365 265.089 144.784 274.61C164.062 288.292 185.517 292.384 208.603 287.979C213.804 286.987 218.83 285.073 224.423 283.442C207.571 265.521 198.337 244.681 193.068 221.665C187.012 221.665 181.045 221.665 174.952 221.665C174.952 199.013 174.952 176.59 174.952 153.927C181.327 153.927 187.55 153.927 193.882 153.927C198.692 131.326 208.101 111.244 224.351 94.3415V94.3415ZM275.052 95.618C283.86 107.009 289.898 119.342 293.679 133.006C282.596 135.609 271.932 138.114 261.398 140.589C259.447 135.794 257.827 131.224 255.751 126.87C253.65 122.47 251.096 118.286 248.558 113.674C237.29 125.261 231.689 138.903 228.113 154.057C233.277 154.057 238.155 154.057 242.942 154.057C242.942 176.767 242.942 199.125 242.942 221.771C237.647 221.771 232.507 221.771 227.211 221.771C230.806 237.708 237.336 251.767 248.516 263.68C257.247 252.457 261.815 239.721 264.973 226.295C276.123 229.114 286.928 231.848 297.936 234.633C295.824 243.535 293.112 252.007 289.035 259.893C284.948 267.801 280.152 275.342 275.639 283.092C290.514 289.533 306.459 291.187 322.669 288.707C353.089 284.049 373.951 266.789 385.983 238.773C391.278 226.445 393.39 213.347 394.219 199.987C395.237 183.601 394.171 167.426 389.779 151.573C384.694 133.208 375.659 117.247 360.303 105.442C343.886 92.8181 325.147 87.7388 304.585 88.8234C294.471 89.3569 284.732 91.4314 275.052 95.618V95.618ZM77.6165 187.084C77.6046 165.12 80.9236 143.775 90.2598 123.671C104.663 92.6528 128.921 73.2899 161.705 64.659C187.109 57.9725 212.473 58.3935 237.303 67.7939C241.317 69.3128 245.065 71.5307 248.991 73.2987C249.818 73.6691 251.107 73.8741 251.831 73.4927C272.141 62.7807 293.952 59.2269 316.595 60.3755C347.744 61.9583 374.704 73.3406 396.175 96.2926C412.078 113.292 421.146 133.863 425.5 156.5C430.848 184.291 430.029 211.89 421.06 238.912C412.118 265.858 396.433 287.672 371.287 301.881C349.101 314.417 325.216 319.403 299.825 317.633C282.988 316.458 267.057 312.212 252.122 304.289C251.438 303.927 250.194 303.954 249.52 304.339C236.941 311.531 223.419 315.825 209.034 317.172C185.634 319.366 162.641 317.615 140.916 307.919C116.15 296.865 100.297 277.327 90.1037 252.761C82.2261 233.773 78.202 213.951 77.6243 193.422C77.5649 191.312 77.6165 189.198 77.6165 187.084" fill="white"></path><path d="M361.228 395.878C361.228 387.339 361.223 378.801 361.23 370.263C361.232 367.234 362.53 366.124 365.483 366.965C366.295 367.197 367.403 368.382 367.412 369.141C367.535 380.505 367.535 391.872 367.434 403.236C367.425 404.183 366.531 405.889 365.962 405.927C363.962 406.057 361.795 405.955 359.954 405.254C358.858 404.835 358.127 403.199 357.445 401.991C352.687 393.57 347.984 385.115 343.259 376.674C343.096 376.385 342.873 376.129 342.348 375.399C342.292 376.603 342.228 377.331 342.228 378.058C342.222 386.603 342.134 395.153 342.281 403.695C342.323 406.171 341.134 406.411 339.216 406.438C337.217 406.466 336.195 406.023 336.221 403.642C336.34 392.542 336.332 381.44 336.232 370.34C336.208 367.725 337.38 367.071 339.724 366.905C343.129 366.667 345.287 367.871 346.92 370.959C351.151 378.966 355.658 386.828 360.058 394.747C360.299 395.179 360.555 395.602 360.804 396.028C360.945 395.979 361.087 395.929 361.228 395.878" fill="white"></path><path d="M315.759 386.515C315.554 384.745 315.413 382.99 315.135 381.257C314.17 375.206 310.381 371.762 304.467 371.496C298.373 371.222 293.536 374.492 292.51 380.399C291.845 384.227 291.755 388.325 292.342 392.161C293.379 398.964 297.208 401.711 304.129 401.583C309.911 401.48 314.038 397.811 315.106 391.758C315.409 390.03 315.545 388.27 315.759 386.515V386.515ZM322.009 386.172C321.93 392.115 321.083 397.896 316.422 402.132C310.211 407.778 302.818 408.026 295.352 405.479C288.466 403.133 285.831 397.333 285.551 390.587C285.379 386.432 285.575 382.075 286.648 378.09C288.533 371.096 293.679 367.307 300.885 366.661C303.666 366.411 306.581 366.379 309.295 366.927C317.128 368.514 321.48 374.397 322.003 383.528C322.054 384.405 322.009 385.289 322.009 386.172" fill="white"></path><path d="M390.018 371.961C390.018 375.866 390.018 379.437 390.018 383.359C393.906 383.359 397.678 383.399 401.448 383.341C403.217 383.315 404.617 383.472 404.592 385.78C404.568 387.976 403.348 388.346 401.483 388.301C397.718 388.216 393.948 388.277 390.038 388.277C390.038 392.665 390.038 396.754 390.038 401.143C394.827 401.143 399.477 401.123 404.127 401.152C406.57 401.168 407.464 402.102 406.901 404.375C406.718 405.121 405.621 406.161 404.921 406.179C398.748 406.319 392.573 406.275 386.399 406.251C383.847 406.24 383.772 404.382 383.77 402.541C383.761 393.993 383.766 385.446 383.766 376.899C383.766 374.695 383.805 372.493 383.761 370.29C383.717 368.013 384.648 366.902 387.058 366.935C392.792 367.012 398.526 366.998 404.259 366.942C406.08 366.922 406.813 367.684 406.795 369.457C406.779 371.163 406.212 372.032 404.308 371.993C399.64 371.898 394.968 371.961 390.018 371.961" fill="white"></path><path d="M95.9237 387.148C95.9833 381.183 97.1737 375.601 101.626 371.203C107.03 365.865 117.394 364.789 123.647 369.114C124.687 369.833 125.259 371.443 125.671 372.759C125.875 373.409 125.44 374.696 124.894 375.021C124.389 375.321 123.237 374.9 122.559 374.487C112.193 368.171 103.092 372.94 102.345 385.215C102.203 387.558 102.425 389.998 102.935 392.292C104.569 399.644 111.002 403.16 118.322 400.779C119.972 400.244 121.503 399.309 123.048 398.482C125.135 397.367 125.878 397.794 125.983 400.177C126.067 402.091 125.135 403.261 123.549 404.201C111.042 411.603 96.9592 404.139 95.9308 389.526C95.8756 388.738 95.9237 387.942 95.9237 387.148" fill="white"></path><path d="M209.312 384.793C212.055 379.292 214.639 374.095 217.239 368.906C218.234 366.922 221.529 365.802 223.25 367.11C223.738 367.481 223.718 369.16 223.33 369.938C220.616 375.37 217.93 380.83 214.859 386.06C212.844 389.492 212.097 392.971 212.366 396.852C212.535 399.31 212.372 401.788 212.401 404.257C212.428 406.576 210.756 406.404 209.262 406.391C207.796 406.377 206.078 406.647 206.115 404.285C206.152 401.994 205.946 399.684 206.16 397.411C206.583 392.943 205.44 388.994 203.185 385.138C200.478 380.511 198.079 375.699 195.686 370.894C195.116 369.752 193.262 368.472 195.107 367.041C196.545 365.928 200.409 366.856 201.223 368.424C203.251 372.327 205.186 376.278 207.142 380.217C207.841 381.626 208.49 383.058 209.312 384.793" fill="white"></path><path d="M168.721 372.018C165.023 372.018 161.851 371.952 158.682 372.045C156.952 372.097 156.265 371.332 156.254 369.721C156.243 368.156 156.544 366.941 158.542 366.95C167.363 366.981 176.184 366.985 185.005 366.943C186.867 366.934 187.207 368.017 187.197 369.494C187.189 370.945 186.922 372.087 185.021 372.04C181.763 371.958 178.503 372.018 174.791 372.018C174.791 373.048 174.791 373.967 174.791 374.886C174.791 384.492 174.704 394.097 174.849 403.7C174.886 406.199 173.671 406.403 171.777 406.434C169.819 406.467 168.653 406.093 168.68 403.693C168.784 394.264 168.722 384.835 168.721 375.407C168.721 374.372 168.721 373.336 168.721 372.018" fill="white"></path><path d="M138.709 386.244C138.709 380.609 138.803 374.974 138.663 369.344C138.605 367.009 139.877 366.777 141.622 366.745C143.467 366.711 144.881 366.907 144.866 369.374C144.795 380.819 144.791 392.263 144.871 403.704C144.888 406.109 143.64 406.444 141.716 406.431C139.799 406.419 138.58 406.136 138.654 403.671C138.827 397.866 138.709 392.053 138.709 386.244" fill="white"></path><path d="M245.9 395.559C245.9 390.885 245.9 386.277 245.9 381.546C250.762 381.546 255.485 381.546 260.433 381.546C260.433 386.127 260.433 390.735 260.433 395.559C255.772 395.559 250.981 395.559 245.9 395.559Z" fill="white"></path><path d="M224.351 94.3396C222.675 93.6782 221.334 93.0719 219.943 92.6067C205.087 87.6508 189.931 87.534 174.782 90.5631C151.131 95.2941 133.707 108.55 123.204 130.296C116.471 144.234 113.394 159.236 112.215 174.606C110.611 195.517 112.237 216.119 118.642 236.207C123.547 251.588 131.365 265.087 144.784 274.609C164.062 288.29 185.517 292.382 208.603 287.977C213.804 286.985 218.83 285.071 224.423 283.44C207.571 265.519 198.337 244.679 193.068 221.663C187.012 221.663 181.045 221.663 174.952 221.663C174.952 199.011 174.952 176.588 174.952 153.925C181.327 153.925 187.55 153.925 193.882 153.925C198.692 131.324 208.101 111.242 224.351 94.3396V94.3396ZM275.052 95.616C283.86 107.007 289.898 119.34 293.679 133.004C282.596 135.607 271.932 138.112 261.398 140.587C259.447 135.792 257.827 131.222 255.751 126.868C253.65 122.468 251.096 118.284 248.558 113.672C237.29 125.259 231.689 138.901 228.113 154.055C233.277 154.055 238.155 154.055 242.942 154.055C242.942 176.765 242.942 199.123 242.942 221.769C237.647 221.769 232.507 221.769 227.211 221.769C230.806 237.706 237.336 251.765 248.516 263.678C257.247 252.455 261.815 239.719 264.973 226.293C276.123 229.112 286.928 231.846 297.936 234.631C295.824 243.533 293.112 252.005 289.035 259.891C284.948 267.799 280.152 275.34 275.639 283.09C290.514 289.531 306.459 291.185 322.669 288.705C353.089 284.047 373.951 266.787 385.983 238.771C391.278 226.443 393.39 213.345 394.219 199.986C395.237 183.599 394.171 167.424 389.779 151.571C384.694 133.206 375.659 117.245 360.303 105.44C343.886 92.8162 325.147 87.7368 304.585 88.8215C294.471 89.355 284.732 91.4295 275.052 95.616V95.616ZM77.6165 187.082C77.6046 165.118 80.9236 143.773 90.2598 123.669C104.663 92.6508 128.921 73.288 161.705 64.657C187.109 57.9705 212.473 58.3916 237.303 67.7919C241.317 69.3109 245.065 71.5287 248.991 73.2968C249.818 73.6671 251.107 73.8722 251.831 73.4908C272.141 62.7787 293.952 59.2249 316.595 60.3735C347.744 61.9564 374.704 73.3387 396.175 96.2906C412.078 113.29 421.146 133.861 425.5 156.498C430.848 184.289 430.029 211.888 421.06 238.91C412.118 265.856 396.433 287.67 371.287 301.879C349.101 314.415 325.216 319.401 299.825 317.631C282.988 316.456 267.057 312.21 252.122 304.287C251.438 303.925 250.194 303.952 249.52 304.337C236.941 311.529 223.419 315.823 209.034 317.17C185.634 319.364 162.641 317.613 140.916 307.917C116.15 296.863 100.297 277.325 90.1037 252.759C82.2261 233.771 78.202 213.949 77.6243 193.42C77.5649 191.31 77.6165 189.196 77.6165 187.082" fill="white"></path><path d="M361.226 395.876C361.226 387.337 361.221 378.799 361.228 370.261C361.23 367.232 362.528 366.122 365.481 366.963C366.293 367.195 367.401 368.38 367.41 369.139C367.533 380.503 367.533 391.87 367.432 403.234C367.423 404.181 366.529 405.887 365.96 405.925C363.96 406.055 361.793 405.953 359.952 405.252C358.856 404.833 358.125 403.197 357.443 401.989C352.685 393.568 347.982 385.113 343.257 376.672C343.094 376.383 342.871 376.127 342.346 375.397C342.29 376.601 342.226 377.329 342.226 378.056C342.22 386.601 342.132 395.151 342.279 403.693C342.321 406.169 341.132 406.409 339.214 406.436C337.215 406.464 336.193 406.021 336.219 403.64C336.338 392.54 336.33 381.438 336.23 370.338C336.206 367.723 337.378 367.069 339.722 366.903C343.127 366.665 345.285 367.869 346.918 370.957C351.149 378.964 355.656 386.826 360.056 394.745C360.297 395.177 360.553 395.6 360.802 396.026C360.943 395.977 361.085 395.927 361.226 395.876" fill="white"></path><path d="M315.759 386.515C315.554 384.745 315.413 382.99 315.135 381.257C314.17 375.206 310.381 371.762 304.467 371.496C298.373 371.222 293.536 374.492 292.51 380.399C291.845 384.227 291.755 388.325 292.342 392.161C293.379 398.964 297.208 401.711 304.129 401.583C309.911 401.48 314.038 397.811 315.106 391.758C315.409 390.03 315.545 388.27 315.759 386.515V386.515ZM322.009 386.172C321.93 392.115 321.083 397.896 316.422 402.132C310.211 407.778 302.818 408.026 295.352 405.479C288.466 403.133 285.831 397.333 285.551 390.587C285.379 386.432 285.575 382.075 286.648 378.09C288.533 371.096 293.679 367.307 300.885 366.661C303.666 366.411 306.581 366.379 309.295 366.927C317.128 368.514 321.48 374.397 322.003 383.528C322.054 384.405 322.009 385.289 322.009 386.172" fill="white"></path><path d="M390.016 371.96C390.016 375.864 390.016 379.435 390.016 383.357C393.905 383.357 397.676 383.397 401.446 383.339C403.215 383.313 404.615 383.47 404.59 385.778C404.566 387.974 403.346 388.344 401.481 388.299C397.716 388.214 393.946 388.275 390.036 388.275C390.036 392.663 390.036 396.752 390.036 401.141C394.825 401.141 399.475 401.121 404.125 401.15C406.568 401.166 407.462 402.1 406.899 404.373C406.716 405.119 405.619 406.159 404.919 406.177C398.746 406.318 392.572 406.273 386.397 406.249C383.845 406.238 383.77 404.38 383.768 402.539C383.759 393.991 383.764 385.445 383.764 376.897C383.764 374.693 383.803 372.491 383.759 370.288C383.715 368.011 384.646 366.9 387.056 366.933C392.79 367.01 398.524 366.997 404.257 366.94C406.078 366.92 406.811 367.682 406.793 369.455C406.777 371.161 406.21 372.03 404.306 371.991C399.638 371.896 394.966 371.96 390.016 371.96" fill="white"></path><path d="M95.9237 387.148C95.9833 381.183 97.1737 375.601 101.626 371.203C107.03 365.865 117.394 364.789 123.647 369.114C124.687 369.833 125.259 371.443 125.671 372.759C125.875 373.409 125.44 374.696 124.894 375.021C124.389 375.321 123.237 374.9 122.559 374.487C112.193 368.171 103.092 372.94 102.345 385.215C102.203 387.558 102.425 389.998 102.935 392.292C104.569 399.644 111.002 403.16 118.322 400.779C119.972 400.244 121.503 399.309 123.048 398.482C125.135 397.367 125.878 397.794 125.983 400.177C126.067 402.091 125.135 403.261 123.549 404.201C111.042 411.603 96.9592 404.139 95.9308 389.526C95.8756 388.738 95.9237 387.942 95.9237 387.148" fill="white"></path><path d="M209.31 384.793C212.053 379.292 214.637 374.095 217.237 368.906C218.232 366.922 221.527 365.802 223.248 367.11C223.736 367.481 223.716 369.16 223.328 369.938C220.614 375.37 217.928 380.83 214.857 386.06C212.842 389.492 212.095 392.971 212.364 396.852C212.533 399.31 212.37 401.788 212.399 404.257C212.426 406.576 210.754 406.404 209.26 406.391C207.794 406.377 206.076 406.647 206.113 404.285C206.15 401.994 205.944 399.684 206.158 397.411C206.582 392.943 205.439 388.994 203.183 385.138C200.476 380.511 198.077 375.699 195.684 370.894C195.114 369.752 193.26 368.472 195.105 367.041C196.544 365.928 200.407 366.856 201.221 368.424C203.249 372.327 205.184 376.278 207.14 380.217C207.839 381.626 208.489 383.058 209.31 384.793" fill="white"></path><path d="M168.721 372.016C165.023 372.016 161.851 371.95 158.682 372.043C156.952 372.095 156.265 371.33 156.254 369.719C156.243 368.154 156.544 366.939 158.542 366.948C167.363 366.979 176.184 366.983 185.005 366.941C186.867 366.932 187.207 368.015 187.197 369.492C187.189 370.943 186.922 372.085 185.021 372.038C181.763 371.957 178.503 372.016 174.791 372.016C174.791 373.046 174.791 373.965 174.791 374.884C174.791 384.49 174.704 394.095 174.849 403.698C174.886 406.197 173.671 406.401 171.777 406.432C169.819 406.465 168.653 406.091 168.68 403.691C168.784 394.263 168.722 384.834 168.721 375.405C168.721 374.37 168.721 373.334 168.721 372.016" fill="white"></path><path d="M138.709 386.244C138.709 380.609 138.803 374.974 138.663 369.344C138.605 367.009 139.877 366.777 141.622 366.745C143.467 366.711 144.881 366.907 144.866 369.374C144.795 380.819 144.791 392.263 144.871 403.704C144.888 406.109 143.64 406.444 141.716 406.431C139.799 406.419 138.58 406.136 138.654 403.671C138.827 397.866 138.709 392.053 138.709 386.244" fill="white"></path><path d="M245.898 395.557C245.898 390.883 245.898 386.275 245.898 381.544C250.76 381.544 255.483 381.544 260.431 381.544C260.431 386.125 260.431 390.733 260.431 395.557C255.77 395.557 250.979 395.557 245.898 395.557Z" fill="white"></path></g><defs><clipPath id="clip0"><rect width="500" height="500" fill="white"></rect></clipPath></defs></svg> 